<?xml version="1.0" encoding="UTF-8" standalone="no"?>
<!DOCTYPE svg PUBLIC "-//W3C//DTD SVG 1.1//EN" "http://www.w3.org/Graphics/SVG/1.1/DTD/svg11.dtd">
<svg width="100%" height="100%" viewBox="0 0 256 108" version="1.1" xmlns="http://www.w3.org/2000/svg" xmlns:xlink="http://www.w3.org/1999/xlink" xml:space="preserve" xmlns:serif="http://www.serif.com/" style="fill-rule:evenodd;clip-rule:evenodd;stroke-linejoin:round;stroke-miterlimit:2;">
    <g id="Fartboard-lol" serif:id="Fartboard lol" transform="matrix(1,0,0,0.989889,0,0)">
        <rect x="0" y="0" width="256" height="108.918" style="fill:none;"/>
        <g transform="matrix(0.949742,0,0,1.37037,-156.994,-427.391)">
            <path d="M434.848,335.47C434.848,348.489 419.751,359.059 401.155,359.059L198.995,359.059C180.399,359.059 165.302,348.489 165.302,335.47C165.302,322.45 180.399,311.88 198.995,311.88L401.155,311.88C419.751,311.88 434.848,322.45 434.848,335.47Z" style="fill:white;fill-opacity:0.8;"/>
            <path d="M434.848,335.47C434.848,348.489 419.751,359.059 401.155,359.059L198.995,359.059C180.399,359.059 165.302,348.489 165.302,335.47C165.302,322.45 180.399,311.88 198.995,311.88L401.155,311.88C419.751,311.88 434.848,322.45 434.848,335.47ZM430.637,335.47C430.637,324.077 417.426,314.828 401.155,314.828L198.995,314.828C182.724,314.828 169.513,324.077 169.513,335.47C169.513,346.862 182.724,356.111 198.995,356.111L401.155,356.111C417.426,356.111 430.637,346.862 430.637,335.47Z" style="fill:rgb(100,149,237);"/>
        </g>
        <g id="Pointer" transform="matrix(-0.116686,-0.0680565,-0.0673684,0.117877,207.341,54.8645)">
            <g transform="matrix(1,0,0,1,-400,-400)">
                <clipPath id="_clip1">
                    <rect x="0" y="0" width="800" height="800"/>
                </clipPath>
                <g clip-path="url(#_clip1)">
                    <g transform="matrix(1,0,0,1,1.5625,1.5625)">
                        <g>
                            <path d="M731.77,371.963L358.438,371.963C350.438,371.963 345.105,377.295 345.105,385.295C345.105,393.295 350.438,398.628 358.438,398.628L571.77,398.628C594.438,398.628 611.77,415.961 611.77,438.628C611.77,461.295 594.438,478.628 571.77,478.628L371.77,478.628C363.77,478.628 358.438,483.961 358.438,491.961C358.438,499.961 363.77,505.294 371.77,505.294L518.438,505.294C541.105,505.294 558.438,522.627 558.438,545.294C558.438,567.961 541.105,585.294 518.438,585.294L358.438,585.294C350.438,585.294 345.105,590.627 345.105,598.627C345.105,606.627 350.438,611.959 358.438,611.959L451.77,611.959C474.438,611.959 491.77,629.292 491.77,651.959C491.77,674.627 474.438,691.959 451.77,691.959L238.438,691.959C201.309,691.959 174.923,681.23 161.456,672.95C154.181,664.509 150.575,650.691 145.103,630.627L143.77,622.627C142.438,615.959 134.438,611.959 127.77,613.294C121.103,614.628 117.103,622.627 118.438,629.294L121.105,635.961C122.723,641.895 124.291,647.827 126.02,653.606C120.792,651.953 115.134,650.5 109.105,649.294C63.772,639.961 25.105,590.627 25.105,545.294L25.105,411.961C25.105,353.294 73.105,305.294 131.772,305.294L144.834,305.294C142.588,308.334 140.445,311.417 138.439,314.627C133.106,322.627 129.106,329.294 122.439,337.294C117.106,342.627 118.439,350.627 123.772,355.961C126.439,357.294 129.105,358.628 131.772,358.628C135.772,358.628 139.772,357.295 142.439,353.295C150.439,345.295 155.772,337.295 161.106,329.295C167.706,320.055 174.311,310.814 182.206,301.573C223.542,261.952 285.106,223.963 285.106,223.963C342.439,191.963 399.773,141.295 427.773,117.295C433.106,113.295 439.773,107.963 442.441,105.295C446.441,105.295 449.108,105.295 454.441,113.295C457.108,118.628 459.773,122.628 461.108,126.628C473.108,161.295 457.108,218.628 413.108,243.961L379.8,266.166C379.342,266.297 378.889,266.448 378.441,266.627L351.773,279.959C346.441,282.627 343.773,290.627 346.441,297.292C349.108,303.958 361.108,305.292 363.773,302.625L385.106,291.958L731.773,291.958C754.441,291.958 771.773,309.291 771.773,331.958C771.77,354.63 754.438,371.963 731.77,371.963Z" style="fill:white;fill-rule:nonzero;"/>
                            <path d="M731.77,265.295L429.105,265.295C479.772,235.962 506.438,166.628 486.438,115.962C485.105,109.295 481.105,103.963 477.105,97.295C463.772,77.295 446.437,78.628 441.105,78.628C433.105,77.295 431.772,78.628 410.437,95.961C383.77,119.961 327.77,169.294 271.77,199.961C269.103,202.628 210.437,238.628 166.437,278.628L131.77,278.628C58.438,278.63 -1.563,338.63 -1.563,411.963L-1.563,545.295C-1.563,602.628 46.438,662.628 102.438,675.963C118.438,679.963 130.438,683.963 135.77,689.295C151.77,702.628 189.103,718.628 238.438,718.628L451.77,718.628C489.103,718.628 518.437,689.295 518.437,651.961C518.437,637.294 513.105,622.628 505.105,611.961L518.437,611.961C555.77,611.961 585.105,582.628 585.105,545.294C585.105,530.627 579.772,515.961 571.772,505.294C609.105,505.294 638.439,475.961 638.439,438.627C638.439,423.959 633.106,409.294 625.106,398.627L731.773,398.627C769.106,398.627 798.441,369.294 798.441,331.959C798.441,294.625 769.105,265.295 731.77,265.295ZM731.77,371.963L358.438,371.963C350.438,371.963 345.105,377.295 345.105,385.295C345.105,393.295 350.438,398.628 358.438,398.628L571.77,398.628C594.438,398.628 611.77,415.961 611.77,438.628C611.77,461.295 594.438,478.628 571.77,478.628L371.77,478.628C363.77,478.628 358.438,483.961 358.438,491.961C358.438,499.961 363.77,505.294 371.77,505.294L518.438,505.294C541.105,505.294 558.438,522.627 558.438,545.294C558.438,567.961 541.105,585.294 518.438,585.294L358.438,585.294C350.438,585.294 345.105,590.627 345.105,598.627C345.105,606.627 350.438,611.959 358.438,611.959L451.77,611.959C474.438,611.959 491.77,629.292 491.77,651.959C491.77,674.627 474.438,691.959 451.77,691.959L238.438,691.959C201.309,691.959 174.923,681.23 161.456,672.95C154.181,664.509 150.575,650.691 145.103,630.627L143.77,622.627C142.438,615.959 134.438,611.959 127.77,613.294C121.103,614.628 117.103,622.627 118.438,629.294L121.105,635.961C122.723,641.895 124.291,647.827 126.02,653.606C120.792,651.953 115.134,650.5 109.105,649.294C63.772,639.961 25.105,590.627 25.105,545.294L25.105,411.961C25.105,353.294 73.105,305.294 131.772,305.294L144.834,305.294C142.588,308.334 140.445,311.417 138.439,314.627C133.106,322.627 129.106,329.294 122.439,337.294C117.106,342.627 118.439,350.627 123.772,355.961C126.439,357.294 129.105,358.628 131.772,358.628C135.772,358.628 139.772,357.295 142.439,353.295C150.439,345.295 155.772,337.295 161.106,329.295C167.706,320.055 174.311,310.814 182.206,301.573C223.542,261.952 285.106,223.963 285.106,223.963C342.439,191.963 399.773,141.295 427.773,117.295C433.106,113.295 439.773,107.963 442.441,105.295C446.441,105.295 449.108,105.295 454.441,113.295C457.108,118.628 459.773,122.628 461.108,126.628C473.108,161.295 457.108,218.628 413.108,243.961L379.8,266.166C379.342,266.297 378.889,266.448 378.441,266.627L351.773,279.959C346.441,282.627 343.773,290.627 346.441,297.292C349.108,303.958 361.108,305.292 363.773,302.625L385.106,291.958L731.773,291.958C754.441,291.958 771.773,309.291 771.773,331.958C771.77,354.63 754.438,371.963 731.77,371.963Z" style="fill:rgb(100,149,237);fill-rule:nonzero;stroke:rgb(100,149,237);stroke-width:1px;"/>
                        </g>
                    </g>
                </g>
            </g>
        </g>
        <g transform="matrix(1,0,0,1.01021,12.9622,11.2782)">
            <g id="The-Answer" serif:id="The Answer">
                <g>
                    <path d="M110.924,30.176L114.768,30.176L114.768,35.144L110.924,35.144L110.924,40.277L105.464,40.277L105.464,35.144L87.698,35.144L110.924,1.394L110.924,30.176ZM105.464,30.176L105.464,18.058L97.12,30.176L105.464,30.176Z" style="fill:rgb(100,149,237);fill-rule:nonzero;"/>
                    <path d="M128.901,35.144L142.378,35.144L142.378,40.277L118.073,40.277L130.635,25.066C131.87,23.551 132.905,22.238 133.741,21.129C134.577,20.019 135.214,19.09 135.651,18.34C136.542,16.871 136.987,15.551 136.987,14.379C136.987,12.691 136.393,11.277 135.206,10.137C134.018,8.996 132.549,8.426 130.799,8.426C127.143,8.426 125.049,10.59 124.518,14.918L119.081,14.918C119.956,7.293 123.807,3.48 130.635,3.48C133.932,3.48 136.698,4.527 138.932,6.621C141.182,8.715 142.307,11.308 142.307,14.402C142.307,16.371 141.784,18.301 140.737,20.191C140.206,21.176 139.428,22.344 138.405,23.695C137.382,25.047 136.089,26.644 134.526,28.488L128.901,35.144Z" style="fill:rgb(100,149,237);fill-rule:nonzero;"/>
                </g>
            </g>
        </g>
    </g>
</svg>
